<?xml version="1.0" encoding="utf-8"?>
<!-- Generator: Adobe Illustrator 17.0.0, SVG Export Plug-In . SVG Version: 6.00 Build 0)  -->
<!DOCTYPE svg PUBLIC "-//W3C//DTD SVG 1.1//EN" "http://www.w3.org/Graphics/SVG/1.1/DTD/svg11.dtd">
<svg version="1.1" id="Layer_1" xmlns="http://www.w3.org/2000/svg" xmlns:xlink="http://www.w3.org/1999/xlink" x="0px" y="0px"
	 width="1024px" height="179.329px" viewBox="0 0 1024 179.329" enable-background="new 0 0 1024 179.329" xml:space="preserve">
<linearGradient id="SVGID_1_" gradientUnits="userSpaceOnUse" x1="771.3111" y1="149.5765" x2="771.3111" y2="96.9504">
	<stop  offset="0" style="stop-color:#FFFFFF;stop-opacity:0"/>
	<stop  offset="1" style="stop-color:#FFFFFF"/>
</linearGradient>
<path fill="url(#SVGID_1_)" d="M534.694,144.088c0.971-9.386,11.716-10.199,18.406-6.991c4.389,2.105,5.371-4.811,7.406-7.183
	c3.268-3.808,9.783-4.238,14.378-4.29c5.031-0.057,7.873,1.688,12.482,3.137c4.29,1.349,6.863-4.373,9.119-6.899
	c7.049-7.894,18.509-3.44,26.704-1.754c3.283-8.123,4.404-14.83,14.309-16.849c10.854-2.213,15.353,4.623,19.556,13.395
	c4.751-12.236,5.199-25.1,18.776-32.219c5.395-2.829,11.643-3.466,17.628-3.744c9.386-0.435,7.281-3.164,9.582-11.603
	c4.182-15.337,16.768-16.347,30.281-18.372c13.687-2.05,23.812,7.693,36.715,6.481c-0.707-13.057,3.491-34.267,12.96-43.649
	c9.252-9.168,23.346-17.06,34.112-4.382c3.225,3.798,11.198-4.454,17.516-0.926c1.758,0.982,2.665,5.257,4.821,5.398
	c1.989,0.13,3.556-2.546,6.154-2.454c17.985,0.635,20.989,22.906,20.989,36.301c-2.583-17.295,23.407-21.461,35.058-19.074
	c17.279,3.54,21.604,29.901,21.775,44.478c12.24-9.575,35.417-1.466,37.166,14.281c6.261-2.064,14.748-11.814,22.801-5.675
	c1.287,1.774,2.315,3.687,3.084,5.739c2.452-0.575,4.918-0.653,7.397-0.236c4.761,0.898,7.858,4.122,10.981,7.536
	c2.585,2.825,5.968,6.041,5.642,10.224c-0.236,3.029-3.362,7.505-2.777,10.356c0.662,3.223,7.291,4.097,9.183,7.163
	c3.544,5.745,2.173,11.217,0.239,17.178c5.981-0.424,11.752,14.701,5.754,18.613c-6.19,4.037-20.492,5.744-27.479,4.445
	c-13.58-2.524-25.14-2.71-38.836-2.133c-12.081,0.509-23.179,4.292-35.35,2.42c-13.003-2-26.079-2.887-39.223-1.589
	c-13.689,1.352-26.589-3.129-40.225-3.3c-27.88-0.35-56.399-2.356-84.224-0.964c-25.253,1.264-50.472-5.298-75.905-5.419
	c-25.809-0.123-51.259,9.67-76.806,6.376c-24.185-3.118-46.871-6.676-71.19-6.29c-2.664,0.042-17.767-0.023-16.357-5.282
	c1.091-4.069,6.892-2.006,9.668-2.873c5.669-1.772,4.155-1.45,9.023,1.276"/>
<linearGradient id="SVGID_2_" gradientUnits="userSpaceOnUse" x1="517.2007" y1="100.061" x2="517.2007" y2="69.0088">
	<stop  offset="0" style="stop-color:#FFFFFF;stop-opacity:0"/>
	<stop  offset="1" style="stop-color:#FFFFFF"/>
</linearGradient>
<path fill="url(#SVGID_2_)" d="M347.597,103.46c-0.633-6.376,2.087-7.756,7.554-8.002c1.481-4.34-1.026-7.18,3.982-9.599
	c3.368-1.626,10.33-3.665,13.754-1.377c1.964-6.279-1.936-9.515,4.819-13.381c1.279-0.732,5.216-1.04,5.908-1.784
	c0.899-0.966,0.368-3.989,0.938-5.312c3.242-7.523,17.351-10.965,22.163-3.902c-0.705-3.707-0.765-7.677,1.976-10.632
	c2.323-2.505,4.741-2.273,8.123-2.424c4.588-0.205,7.251,0.711,10.025,4.153c1.805,2.24,2.735,5.796,4.805,7.517
	c0.713-4.754-1.134-7.598,2.569-11.688c1.784-1.971,7.3-4.982,9.889-2.759c0.281-3.666-1.9-6.997,0.825-10.298
	c2.242-2.716,7.3-4.985,10.553-5.69c5.934-1.287,17.342-0.257,21.206,4.577c0.539,0.674,1.337,3.42,2.07,3.751
	c1.279,0.578,4.159-1.707,5.978-2.175c4.775-1.227,8.175-0.954,10.208,3.957c0.821,1.984,0.657,7.735,1.821,8.94
	c1.502,1.555,5.755,0.397,7.724,2.491c1.32,1.404,1.451,2.861,1.618,4.742c0.255,2.879,0.63,7.092-1.277,9.383
	c3.549-0.421,6.222-2.648,9.489,0.126c1.876,1.594,3.54,5.793,3.556,8.182c-0.473-6.206,2.324-10.486,8.574-10.329
	c5.786,0.145,5.092,4.998,5.314,9.681c4.64-3.387,12.618-2.497,17.278,0.625c4.595,3.078,5.114,10.221,3.4,15.19
	c3.086-4.723,12.578-3.983,17.416-2.308c2.593,0.897,4.513,2.916,7.494,3.131c2.722,0.197,5.736-1.326,8.088-2.441
	c5.722-2.713,9.306-8.428,15.776-10.033c6.271-1.556,17.369-2.28,19.829,5.499c4.384-0.332,7.656-4.543,12.501-3.425
	c3.371,0.778,4.498,3.819,5.382,7.025c4.438-2.17,7.332-4.986,11.749-0.345c1.255,1.319,1.113,2.804,2.267,4.318
	c1.629,2.135,4.136,1.461,7.187,1.461c7.36,0,12.144,0.961,17.722,5.539c2.565,2.105,3.09,0.915,6.679,1.73
	c2.522,0.574,4.651,1.892,1.609,4.186c-1.776,1.34-5.125,0.663-7.253,0.658c-5.197-0.01-10.255-0.186-15.413-0.762
	c-11.43-1.278-22.408-1.222-33.94-1.306c-9.647-0.07-19.287-1.04-28.932-1.376c-6.561-0.228-13.03-1.356-19.609-1.426
	c-8.01-0.085-16.032,0.241-24.039-0.052c-17.826-0.653-35.773-0.466-53.59,0.059c-13.152,0.388-26.41,0.524-39.387,2.844
	c-18.786,3.359-37.176,3.403-56.304,3.403c-7.519,0-15.591-0.786-23.034,0.077c-4.651,0.539-9.016,1.938-13.677,2.605
	c-4.009,0.574-26.154,3.591-24.057-4.067"/>
<linearGradient id="SVGID_3_" gradientUnits="userSpaceOnUse" x1="249.4358" y1="168.0897" x2="249.4358" y2="122.6443">
	<stop  offset="0" style="stop-color:#FFFFFF;stop-opacity:0"/>
	<stop  offset="1" style="stop-color:#FFFFFF"/>
</linearGradient>
<path opacity="0.7" fill="url(#SVGID_3_)" d="M1.218,173.064c-0.927-9.331,3.055-11.351,11.055-11.712
	c2.167-6.352-1.502-10.508,5.828-14.048c4.929-2.38,15.118-5.363,20.13-2.015c2.875-9.189-2.834-13.925,7.053-19.584
	c1.872-1.071,7.634-1.522,8.647-2.611c1.315-1.414,0.538-5.838,1.372-7.774c4.745-11.009,25.394-16.047,32.436-5.71
	c-1.032-5.426-1.119-11.236,2.892-15.559c3.4-3.665,6.938-3.326,11.888-3.547c6.714-0.3,10.612,1.041,14.672,6.078
	c2.642,3.278,4.002,8.482,7.033,11.002c1.043-6.958-1.66-11.12,3.759-17.106c2.611-2.884,10.684-7.291,14.473-4.038
	c0.412-5.365-2.781-10.241,1.208-15.072c3.282-3.975,10.684-7.295,15.445-8.328c8.684-1.884,25.38-0.377,31.036,6.699
	c0.789,0.987,1.957,5.005,3.029,5.49c1.872,0.846,6.086-2.498,8.749-3.183c6.988-1.796,11.964-1.397,14.939,5.792
	c1.202,2.903,0.961,11.321,2.665,13.084c2.199,2.276,8.422,0.581,11.304,3.646c1.932,2.054,2.124,4.187,2.368,6.941
	c0.373,4.214,0.922,10.379-1.869,13.733c5.194-0.616,9.106-3.876,13.887,0.185c2.746,2.332,5.18,8.478,5.204,11.974
	c-0.692-9.083,3.402-15.346,12.548-15.116c8.468,0.213,7.452,7.314,7.777,14.168c6.791-4.957,18.466-3.654,25.287,0.915
	c6.725,4.505,7.485,14.959,4.977,22.231c4.517-6.913,18.408-5.829,25.489-3.378c3.794,1.313,6.604,4.267,10.967,4.583
	c3.983,0.289,8.395-1.94,11.837-3.572c8.375-3.97,13.62-12.335,23.089-14.684c9.177-2.277,25.42-3.336,29.02,8.048
	c6.416-0.485,11.205-6.648,18.296-5.012c4.933,1.139,6.583,5.59,7.877,10.281c6.495-3.176,10.73-7.297,17.195-0.505
	c1.837,1.93,1.629,4.104,3.319,6.32c2.384,3.125,6.052,2.139,10.518,2.139c10.772,0,17.773,1.406,25.936,8.106
	c3.754,3.081,4.522,1.338,9.774,2.533c3.692,0.839,6.806,2.769,2.355,6.126c-2.6,1.961-7.501,0.97-10.614,0.963
	c-7.607-0.015-15.009-0.271-22.557-1.116c-16.728-1.871-32.794-1.789-49.671-1.912c-14.118-0.103-28.226-1.523-42.343-2.013
	c-9.602-0.334-19.07-1.985-28.698-2.087c-11.722-0.124-23.463,0.353-35.181-0.077c-26.089-0.956-52.354-0.683-78.43,0.087
	c-19.249,0.568-38.652,0.767-57.643,4.163c-27.493,4.916-54.408,4.98-82.402,4.98c-11.005,0-22.817-1.15-33.711,0.113
	c-6.807,0.789-13.196,2.836-20.016,3.813c-5.868,0.84-38.277,5.256-35.207-5.952"/>
<linearGradient id="SVGID_4_" gradientUnits="userSpaceOnUse" x1="670.3976" y1="33.1371" x2="670.3976" y2="12.0615">
	<stop  offset="0" style="stop-color:#FFFFFF;stop-opacity:0"/>
	<stop  offset="1" style="stop-color:#FFFFFF"/>
</linearGradient>
<path fill="url(#SVGID_4_)" d="M605.298,31.624c0.929-3.685,5.269-3.683,8.316-3.674c3.565,0.01,6.161-0.042,9.468-1.033
	c1.847-0.553,3.797-0.725,5.639-1.281c2.357-0.711,2.886-1.078,4.89-0.155c2.689,1.238,4.699,4.169,6.294,0.34
	c1.569-0.077,4.001-0.511,5.122,0.761c0.191-2.396-1.392-4.288,0.13-6.667c1.489-2.327,4.177-2.817,6.782-2.941
	c4.677-0.222,10.478,3.191,10.451,8.348c1.91,0.156,3.827-1.37,5.797-0.847c2.434,0.646,1.709,3.72,3.338,4.574
	c0.896,0.47,1.391-0.771,2.507-0.684c0.918,0.072,1.527,1.334,2.42,1.316c2.22-0.045,1.958-2.799,3.388-3.689
	c1.39-0.865,5.284-0.593,6.895-0.421c2.26,0.241,3.285,2.063,5.231,2.377c2.294,0.371,4.909-1.087,7.332-1.081
	c2.715,0.007,4.584,1.026,7.096,1.296c5.774,0.62,11.126-0.776,16.857-0.432c2.314,0.139,5.496,0.267,7.575,1.339
	c0.964,0.497,1.459,1.703,2.632,2.081c1.492,0.48,2.583-0.69,2.598,1.335c0.036,4.845-16.557,2.914-19.592,2.437
	c-14.065-2.213-28.784-0.275-43.004-0.275c-9.118,0-18.235,0-27.353,0c-7.929,0-15.79-0.581-23.667-0.648
	c-4.133-0.036-8.046-0.648-12.15-0.648c-1.058,0-3.544,0.459-4.466-0.043c-1.093-0.595-1.818-2.759,0.12-2.55"/>
</svg>
