<?xml version="1.0" encoding="utf-8"?>
<!-- Generator: Adobe Illustrator 17.0.1, SVG Export Plug-In . SVG Version: 6.00 Build 0)  -->
<!DOCTYPE svg PUBLIC "-//W3C//DTD SVG 1.1//EN" "http://www.w3.org/Graphics/SVG/1.1/DTD/svg11.dtd">
<svg version="1.1" id="Layer_1" xmlns="http://www.w3.org/2000/svg" xmlns:xlink="http://www.w3.org/1999/xlink" x="0px" y="0px"
	 width="229.219px" height="140.534px" viewBox="0 0 229.219 140.534" enable-background="new 0 0 229.219 140.534"
	 xml:space="preserve">
<polyline display="none" fill="#6F829C" points="195.63,108.924 218,121.574 218,132.438 195.63,132.438 195.63,113.984 "/>
<polyline display="none" fill="#6F829C" points="29.458,124.261 20.727,129.198 20.727,133.438 29.458,133.438 29.458,126.235 "/>
<linearGradient id="SVGID_1_" gradientUnits="userSpaceOnUse" x1="113.6057" y1="128.5237" x2="113.6057" y2="69.7644">
	<stop  offset="0" style="stop-color:#6F829C"/>
	<stop  offset="1" style="stop-color:#304969"/>
</linearGradient>
<path display="none" fill="url(#SVGID_1_)" d="M198.695,88.982l4.925-1.753l-3.83-20.449l-18.01,0.89l-1.857-33.778
	c0,0-1.094-16.944-16.416-17.528c-0.553-0.021-1.085-0.008-1.607,0.022c-2.055-4.594-6.176-9.632-14.41-9.946
	c-15.321-0.584-18.605,19.281-18.605,19.281v44.562l-1.03,0.051l-81.828,4.042L23.592,93.656h5.472v5.258l-5.472,34.471
	l104.263-0.19l40.131,0.912l35.633-1.75l-4.925-36.949V88.982z"/>
<path display="none" fill="#304969" d="M52.001,62.41c-2.791-1.582-4.716-4.845-5.216-5.555c-0.5-0.71-2.364-3.276-3.206-5.166
	s-1.571-7.882-1.086-11.143c0.486-3.261,3.661-5.908,3.661-5.908l5.715-5.816c-0.46-0.978-1.677-0.713-1.677-0.713l-0.24,0.535
	c0,0-0.131,0.159-0.941,0.092s-0.931-1.313-0.931-1.313s0.103-2.697,0.496-3.904c0.394-1.207,2.524-2.583,2.524-2.583l-3.107-0.925
	l3.42-0.748l1.062,1.533l-4.456-2.643l3.682-0.052l-0.374-0.84l0.132-0.889c0,0,1.929-1.941,2.863-2.105
	c0.934-0.164,1.128,0.328,1.128,0.328s0.646-0.866,1.363-1.009c-0.443,0.701-0.251,1.924-0.251,1.924s1.364-1.74,3.073-2.199
	c1.708-0.459,0.049,0.507,0.049,0.507l-1.541,2.926c0,0,2.167-1.745,4.389-2.181c2.222-0.436,1.795-0.321,0.078,0.796
	s-2.648,2.815-2.648,2.815l0.115,0.427c0,0,3.36-1.496,4.631-0.451c-2.012,0.342-3.622,1.814-3.622,1.814s1.629,0.239,1.364,1.255
	c-0.265,1.016-0.433,2.307-1.338,2.76c-0.905,0.453-0.905,0.453-1.643,0.379c-0.738-0.074-1.124-1.79-1.124-1.79l-0.085,2.127
	l4.582,7.297l-1.062-0.408l1.646,4.149c0,0-1.646-4.149-1.602-1.451c0.7,3.438,0.884,10.579,0.884,10.579s1.119,0.987,3.536,3.308
	c5.279-5.043,15.857-8.192,15.857-8.192s1.123-0.475,1.069,0.48c7.679-1.406,20.336-0.447,20.336-0.447s1.668,0.787,0.078,0.796
	c-15.554,0.054-14.629,0.549-14.629,0.549l0.925,0.494l13.222,3.752c0,0-0.369,0.468-1.592,0.155
	c-6.073-1.6-9.661-1.689-9.661-1.689l-0.219,0.752l-0.551,0.346l1.38,0.669c0,0,0.817,0.14,0.155,1.592
	c-0.662,1.452-1.624,1.327-1.624,1.327l-0.586-0.016l0.33,1.137c0,0-0.994,0.603-1.068,1.784c-0.074,1.181-0.143,2.278-0.143,2.278
	s-0.28,0.387-0.74,0.656c-0.459,0.269-0.577-0.674-0.577-0.674l0.333,2.67c0,0,0.033,1.092-0.763,1.17
	c-0.796,0.078-2.022-1.264-2.022-1.264s0.859,0.574,0.72,1.391c-0.14,0.817-0.14,0.817-0.14,0.817l-0.971,0.533
	c0,0,0.962,0.125,0.794,0.653c-0.168,0.528-0.168,0.528-0.168,0.528s-4.043-0.264-5.808-0.384c-1.765-0.12-3.156,0.6-3.156,0.6
	s0.281,0.63,0.475,1.123c0.194,0.492-1.225,0.923-1.225,0.923s-2.436,1.99-3.433,1.503c-0.997-0.487-1.435-1.979-1.435-1.979
	s-2.684,0.188-3.11-0.428c-0.425-0.616-0.291-2.236-0.291-2.236l-1.112,2.081c0,0,0.487,1.998-0.646,3.861
	c-1.133,1.864-4.63,2.715-4.63,2.715l-0.566,9.186l-2.46,0.24l-2.385-9.483C56.211,68.135,54.433,61.88,52.001,62.41z"/>
<linearGradient id="SVGID_2_" gradientUnits="userSpaceOnUse" x1="131.0612" y1="60.0669" x2="174.6398" y2="60.0669">
	<stop  offset="0" style="stop-color:#6F829C"/>
	<stop  offset="1" style="stop-color:#304969"/>
</linearGradient>
<polygon fill="url(#SVGID_2_)" points="174.616,74.613 174.64,57.505 153.431,45.521 131.061,58.17 131.061,74.613 "/>
<polyline fill="#6F829C" points="190.877,110.299 213.246,122.948 213.246,133.813 190.877,133.813 190.877,115.359 "/>
<polyline fill="#6F829C" points="24.704,124.635 15.973,129.572 15.973,133.813 24.704,133.813 24.704,126.61 "/>
<linearGradient id="SVGID_3_" gradientUnits="userSpaceOnUse" x1="108.852" y1="132.5375" x2="108.852" y2="101.553">
	<stop  offset="0" style="stop-color:#6F829C"/>
	<stop  offset="1" style="stop-color:#304969"/>
</linearGradient>
<polyline fill="url(#SVGID_3_)" points="124.131,71.657 123.101,71.708 41.273,75.75 18.838,95.031 24.31,95.031 24.31,100.289 
	18.838,134.76 123.101,134.57 163.232,135.481 198.866,133.732 193.941,96.783 193.941,90.356 198.866,88.604 195.035,68.155 
	177.026,69.044 "/>
<path fill="#304969" d="M47.248,63.784c-2.791-1.582-4.716-4.845-5.216-5.555c-0.5-0.71-2.364-3.276-3.206-5.166
	s-1.571-7.882-1.086-11.143c0.486-3.261,3.661-5.908,3.661-5.908l5.715-5.816c-0.46-0.978-1.677-0.713-1.677-0.713l-0.24,0.535
	c0,0-0.131,0.159-0.941,0.092s-0.931-1.313-0.931-1.313s0.103-2.697,0.496-3.904c0.394-1.207,2.524-2.583,2.524-2.583l-3.107-0.925
	l3.42-0.748l1.062,1.533l-4.456-2.643l3.682-0.052l-0.374-0.84l0.132-0.889c0,0,1.929-1.941,2.863-2.105
	c0.934-0.164,1.128,0.328,1.128,0.328s0.646-0.866,1.363-1.009c-0.443,0.701-0.251,1.924-0.251,1.924s1.364-1.74,3.073-2.199
	c1.708-0.459,0.049,0.507,0.049,0.507l-1.541,2.926c0,0,2.167-1.745,4.389-2.181c2.222-0.436,1.795-0.321,0.078,0.796
	c-1.717,1.117-2.648,2.815-2.648,2.815l0.115,0.427c0,0,3.36-1.496,4.631-0.451c-2.012,0.342-3.622,1.814-3.622,1.814
	s1.629,0.239,1.364,1.255c-0.265,1.016-0.433,2.307-1.338,2.76c-0.905,0.453-0.905,0.453-1.643,0.379
	c-0.738-0.074-1.124-1.79-1.124-1.79l-0.085,2.127l4.582,7.297l-1.062-0.408l1.646,4.149c0,0-1.646-4.149-1.602-1.451
	c0.7,3.438,0.884,10.579,0.884,10.579s1.119,0.987,3.536,3.308c5.279-5.043,15.857-8.192,15.857-8.192s1.123-0.475,1.069,0.48
	c7.679-1.406,20.336-0.447,20.336-0.447s1.668,0.787,0.078,0.796c-15.554,0.054-14.629,0.549-14.629,0.549l0.925,0.494l13.222,3.752
	c0,0-0.369,0.468-1.592,0.155c-6.073-1.6-9.661-1.689-9.661-1.689l-0.219,0.752l-0.551,0.346l1.38,0.669c0,0,0.817,0.14,0.155,1.592
	c-0.662,1.452-1.624,1.327-1.624,1.327l-0.586-0.016l0.33,1.137c0,0-0.994,0.603-1.068,1.784c-0.074,1.181-0.143,2.278-0.143,2.278
	s-0.28,0.387-0.74,0.656c-0.459,0.269-0.577-0.674-0.577-0.674l0.333,2.67c0,0,0.033,1.092-0.763,1.17
	c-0.796,0.078-2.022-1.264-2.022-1.264s0.859,0.574,0.72,1.391c-0.14,0.817-0.14,0.817-0.14,0.817l-0.971,0.533
	c0,0,0.962,0.125,0.794,0.653c-0.168,0.528-0.168,0.528-0.168,0.528s-4.043-0.264-5.808-0.384c-1.765-0.12-3.156,0.6-3.156,0.6
	s0.281,0.63,0.475,1.123c0.194,0.492-1.225,0.923-1.225,0.923s-2.436,1.99-3.433,1.503s-1.435-1.979-1.435-1.979
	s-2.684,0.188-3.11-0.428c-0.425-0.616-0.291-2.236-0.291-2.236l-1.112,2.081c0,0,0.487,1.998-0.646,3.861s-4.63,2.715-4.63,2.715
	l-0.566,9.186l-2.46,0.24l-2.385-9.483C51.458,69.51,49.68,63.255,47.248,63.784z"/>
<linearGradient id="SVGID_4_" gradientUnits="userSpaceOnUse" x1="131.0612" y1="50.8453" x2="174.6398" y2="50.8453">
	<stop  offset="0" style="stop-color:#6F829C"/>
	<stop  offset="1" style="stop-color:#304969"/>
</linearGradient>
<path fill="url(#SVGID_4_)" d="M174.64,56.505c0,0-4.395-11.985-21.209-11.985S131.061,57.17,131.061,57.17"/>
</svg>
