<?xml version="1.0" encoding="utf-8"?>
<!-- Generator: Adobe Illustrator 17.0.0, SVG Export Plug-In . SVG Version: 6.00 Build 0)  -->
<!DOCTYPE svg PUBLIC "-//W3C//DTD SVG 1.1//EN" "http://www.w3.org/Graphics/SVG/1.1/DTD/svg11.dtd">
<svg version="1.1" id="Layer_1" xmlns="http://www.w3.org/2000/svg" xmlns:xlink="http://www.w3.org/1999/xlink" x="0px" y="0px"
	 width="160px" height="220px" viewBox="0 0 160 220" enable-background="new 0 0 160 220" xml:space="preserve">
<g>
	<g>
		<g>
			<path fill="none" stroke="#303030" stroke-miterlimit="10" d="M86.939,201.408c0,0,10.888-4.432,17.287-41.197"/>
			<path fill="none" stroke="#303030" stroke-miterlimit="10" d="M83.815,193.351c0,0,3.528,11.849,3.124-11.01"/>
			<path fill="none" stroke="#303030" stroke-miterlimit="10" d="M86.939,200.809c0,0,2.399-3.172,1.926-21.594"/>
			<polyline fill="none" stroke="#303030" stroke-miterlimit="10" points="65.35,172.164 72.553,188.839 62.3,170.685 			"/>
			<line fill="none" stroke="#303030" stroke-miterlimit="10" x1="60.928" y1="169.948" x2="72.553" y2="188.839"/>
			
				<line fill="none" stroke="#303030" stroke-width="2" stroke-miterlimit="10" x1="83.887" y1="185.894" x2="82.725" y2="188.839"/>
		</g>
		<g>
			<path fill="#FFCC15" d="M79.38,2.518C65.139,3.099,59.036,6.587,59.036,6.587s-12.351,1.414-18.6,6.394
				c-11.916,4.359-18.6,14.822-18.6,14.822S10.501,36.812,9.629,46.984c-6.975,6.103-6.103,24.122-6.103,24.122
				s-3.778,17.147,3.488,27.319c4.069,21.506,37.845,51.971,43.594,58.997S61.07,170.21,61.07,170.21s11.334,6.394,18.31,6.394
				c6.975,0,13.369-3.197,13.369-3.197s11.625-13.369,18.6-20.344c32.55-28.482,40.397-45.919,45.338-66.554
				c3.778-7.847,0-16.275,0-16.275s0.291-15.113-5.231-20.635c-2.616-14.822-13.66-22.088-13.66-22.088s-5.017-9.159-17.438-13.66
				c-9.009-7.847-20.053-7.266-20.053-7.266S93.621,1.937,79.38,2.518z"/>
		</g>
		<g>
			<polygon fill="#1C75BC" points="74.003,129.027 74.003,151.601 99.869,155.91 126.48,138.981 138.232,125.792 131.548,108.921 
				80.76,112.911 			"/>
		</g>
		<linearGradient id="SVGID_1_" gradientUnits="userSpaceOnUse" x1="64.9664" y1="112.6433" x2="154.4798" y2="87.0681">
			<stop  offset="0" style="stop-color:#FFDE17"/>
			<stop  offset="1" style="stop-color:#F26522"/>
		</linearGradient>
		<path fill="url(#SVGID_1_)" d="M36.948,138.532l6.472,11.259l7.187,7.632l26.883-8.668v-21.848c0,0,2.18-3.197,10.172,1.163
			c9.155-0.581,10.886,2.902,10.886,2.902l5.233-14.368c0,0,6.546,0.739,10.236,4.377c4.888,2.149,6.497,6.407,6.497,6.407
			l9.192-12.686c0,0,3.458,4.956,2.577,9.598c3.898,3.792,2.606,5.224,2.606,5.224s16.275-14.822,23.476-49.697
			c0,0-25.583-17.119-52.248-17.119S58.309,80.988,58.309,80.988s-19.53,21.46-22.814,29.077
			c-3.284,7.617-2.313,18.877-2.313,18.877L36.948,138.532z"/>
		<g>
			<path fill="#27AAE1" d="M22.126,122.945l5.247,9.47l15.044,16.34c0,0-1.337-4.941,0-6.342c-1.496-1.821,3.769-3.948,3.769-3.948
				l-8.711-12.781c0,0,0.537-3.892,5.681-5.898c3.091-3.923,9.682-3.776,9.682-3.776l-5.305-14.329c0,0,6.61-3.786,15.304-3.786
				c9.276-1.796,15.602,0,15.602,0l0.436-18.171c0,0,6.898-1.062,18.232,1.263c14.241,1.163,16.818,5.981,16.818,5.981l4.4-14.572
				c0,0,9.156,1.326,14.022,8.591c7.772,4.65,11.28,10.766,11.28,10.766l4.801-10.766c0,0,5.067,6.42,4.446,8.548
				c-0.621,2.128,2.633-8.548,2.633-8.548l2.858,0.224c0,0-0.031-13.151-5.65-24.997s-42.971-21.146-56.991-21.728
				c-14.02-0.581-34.945,13.95-46.57,19.472S25.943,72.276,22.126,83.177S22.126,122.945,22.126,122.945z"/>
		</g>
		<g>
			<path fill="#FFCC15" d="M8.013,80.988c0,0,0.161,27.972,11.741,41.958c4.988,6.286,7.619,9.47,7.619,9.47
				s-2.694-7.227-1.178-10.051c-2.325-3.755,4.112-7.664,4.112-7.664l-7.369-12.172c0,0,2.084-7.427,7.369-10.031
				C33.17,87.963,42.46,86.51,42.46,86.51l-4.374-15.403c0,0,10.153-5.225,19.184-4.937c9.613-4.072,22.182-3.462,22.182-3.462
				V46.984c0,0,12.644-1.462,21.98,3.774c13.404,0.876,20.521,7.662,20.521,7.662l2.347-14.051c0,0,11.225,3.565,16.042,10.215
				c6.464,3.444,11.336,15.65,11.336,15.65l1.192-9.868l3.817,9.868c0,0,0-15.403-5.231-20.635
				c-1.744-12.206-9.786-15.694-9.786-15.694s-9.977-13.369-20.73-15.694c-27.96-2.989-40.227-7.847-57.314-4.941
				S29.61,29.848,23.289,36.522S8.245,68.612,8.245,68.612L8.013,80.988z"/>
		</g>
		<g>
			<path fill="#1C75BC" d="M149.915,43.82c-3.951-10.933-12.119-16.308-12.119-16.308s-5.017-9.159-17.438-13.66
				c-9.009-7.847-20.053-7.266-20.053-7.266s-6.684-4.65-20.925-4.069S59.036,6.587,59.036,6.587S47.266,7.71,41.017,12.69
				c-2.599,0.951-2.333,3.064-4.419,4.423c-11.275,2.842-14.762,10.689-14.762,10.689S10.501,36.812,9.629,46.984
				c-6.975,6.103-6.103,24.122-6.103,24.122s-3.778,17.147,3.488,27.319c1.426,7.538,6.502,16.176,12.741,24.52
				c0,0-10.125-16.092-6.638-20.742c-0.872-8.138,2.034-10.513,3.197-12.377c-2.08-3.453-4.65-10.873-4.65-10.873
				s0.495-6.189,9.591-11.916c5.231-6.684,11.625-8.428,14.241-9.3c-0.885-3.329-1.744-12.206-1.744-12.206
				c7.847-6.684,21.216-8.138,21.216-8.138s4.364-3.778,24.996-4.941c0.201-1.824,0.07-12.206,0.07-12.206
				s17.656,0.581,23.759,5.813c9.881-2.325,22.088,6.975,22.088,6.975l-0.291-8.719c0,0,11.625,1.453,16.275,12.497
				C146.318,36.603,149.915,43.82,149.915,43.82z"/>
		</g>
		<path fill="none" stroke="#303030" stroke-miterlimit="10" d="M156.687,86.51c-4.941,20.635-12.788,38.072-45.338,66.554"/>
		<g>
			<path fill="#27AAE1" d="M92.749,147.005l5.8-16.034c0,0,5.03,1.057,8.191,3.805c5.929,2.804,4.845,4.212,4.845,4.212l8.93-11.601
				c0,0,3.077,3.021,3.786,6.357l2.597,4.676l-19.754,19.003L92.749,147.005z"/>
		</g>
		<g>
			<polyline fill="#00A79D" points="59.326,158.515 58.309,164.979 76.577,170.947 97.108,167.304 98.762,161.063 76.183,156.301 
				59.326,158.515 			"/>
		</g>
		<path fill="none" stroke="#663434" stroke-miterlimit="10" d="M59.036,6.587c-15.113,35.166,12.788,115.126,13.66,153.179"/>
		<path fill="none" stroke="#663434" stroke-miterlimit="10" d="M39.803,13.271C15.013,45.28,67.688,146.036,69.478,159.766"/>
		<path fill="none" stroke="#663434" stroke-miterlimit="10" d="M21.835,27.803c-22.96,25.575,42.6,128.193,43.054,133.26"/>
		<path fill="none" stroke="#663434" stroke-miterlimit="10" d="M9.629,46.984C-6.646,76.919,57.388,148.727,61.07,162.461"/>
		<path fill="none" stroke="#663434" stroke-miterlimit="10" d="M3.526,71.106c-2.906,29.063,47.275,78.637,55.801,92.71"/>
		<path fill="none" stroke="#663434" stroke-miterlimit="10" d="M79.38,2.518c3.197,8.138-4.359,152.58-1.163,156.939"/>
		<path fill="none" stroke="#663434" stroke-miterlimit="10" d="M100.305,6.587c13.95,8.138-18.746,146.186-16.348,152.87"/>
		<path fill="none" stroke="#663434" stroke-miterlimit="10" d="M120.358,13.853c22.525,18.269-31.771,135.814-31.289,146.231"/>
		<path fill="none" stroke="#663434" stroke-miterlimit="10" d="M137.796,27.512c20.053,27.61-44.248,127.901-44.965,133.551"/>
		<path fill="none" stroke="#663434" stroke-miterlimit="10" d="M151.456,49.6c11.916,39.816-55.08,101.508-55.731,112.949"/>
		<path fill="none" stroke="#663434" stroke-miterlimit="10" d="M156.687,70.234c0,42.141-57.544,85.735-59.579,93.582"/>
		<path fill="#303030" stroke="#303030" stroke-miterlimit="10" d="M58.309,163.381c0,0,9.746,4.941,20.567,5.086
			c10.821,0.145,14.779-2.008,16.052-3.778c1.273-1.77-1.163-4.214-1.163-4.214l6.248,4.505l-7.266,8.428
			c0,0-7.431,3.198-13.369,3.197c-9.3-1.163-18.31-6.394-18.31-6.394l-2.761-5.958V163.381z"/>
		<g>
			<path fill="#473D59" d="M50.608,157.423L61.07,170.21c0,0-2.761-4.795-1.744-6.394c1.017-1.598,6.684-4.069,18.891-4.359
				s16.856,1.956,18.891,4.359c2.034,2.403,0,4.64,0,4.64l10.036-11.034c0,0,1.215-1.285-1.608-4.069
				c0-2.906-2.325-2.325-2.325-2.325s0.145-2.18-4.069-2.906c-1.598-2.906-5.813-2.616-5.813-2.616s-2.616-3.115-7.556-1.744
				c-4.214-2.616-7.188-0.291-7.188-0.291s-2.402-2.616-7.343,0.291c-4.505-1.292-7.556,1.163-7.556,1.163s-4.214-0.145-6.103,2.616
				c-4.359,0.291-3.778,2.616-3.778,2.616s-2.344,0.869-2.616,2.906C49.736,155.098,50.608,157.423,50.608,157.423z"/>
			<path fill="none" stroke="#333333" stroke-miterlimit="10" d="M50.608,157.423L61.07,170.21c0,0-2.761-4.795-1.744-6.394
				c1.017-1.598,6.684-4.069,18.891-4.359s16.856,1.956,18.891,4.359c2.034,2.403,0,4.64,0,4.64l10.036-11.034
				c0,0,1.215-1.285-1.608-4.069c0-2.906-2.325-2.325-2.325-2.325s0.145-2.18-4.069-2.906c-1.598-2.906-5.813-2.616-5.813-2.616
				s-2.616-3.115-7.556-1.744c-4.214-2.616-7.188-0.291-7.188-0.291s-2.402-2.616-7.343,0.291c-4.505-1.292-7.556,1.163-7.556,1.163
				s-4.214-0.145-6.103,2.616c-4.359,0.291-3.778,2.616-3.778,2.616s-2.344,0.869-2.616,2.906
				C49.736,155.098,50.608,157.423,50.608,157.423z"/>
		</g>
		<path fill="#434343" stroke="#303030" stroke-miterlimit="10" d="M66.156,172.826c0,0,7.712,6.684,12.284,15.549
			c3.119-1.744,6.607-2.47,6.607-2.47l7.702-12.497l-13.296,1.163L66.156,172.826z"/>
		<path fill="none" stroke="#663434" stroke-miterlimit="10" d="M92.749,173.407c0,0,11.625-13.369,18.6-20.344
			c32.55-28.482,40.397-45.919,45.338-66.554c3.778-7.847,0-16.275,0-16.275s0.291-15.113-5.231-20.635
			c-2.616-14.822-13.66-22.088-13.66-22.088s-5.017-9.159-17.438-13.66c-9.009-7.847-20.053-7.266-20.053-7.266
			s-6.684-4.65-20.925-4.069S59.036,6.587,59.036,6.587s-12.351,1.414-18.6,6.394c-11.916,4.359-18.6,14.822-18.6,14.822
			S10.501,36.812,9.629,46.984c-6.975,6.103-6.103,24.122-6.103,24.122s-3.778,17.147,3.488,27.319
			c4.069,21.506,37.845,51.971,43.594,58.997S61.07,170.21,61.07,170.21"/>
		<g>
			<path fill="#333333" d="M68.045,203.197c0,0,7.423-2.678,9.736-3.052c2.313-0.374,7.992,0.145,9.3,1.526
				c1.308,1.38,0,12.134,0,12.134l-10.899,3.197l-8.138-2.18l-1.017-1.744v-1.308L68.045,203.197z"/>
			<path fill="none" stroke="#333333" stroke-miterlimit="10" d="M68.045,203.197c0,0,7.423-2.678,9.736-3.052
				c2.313-0.374,7.992,0.145,9.3,1.526c1.308,1.38,0,12.134,0,12.134l-10.899,3.197l-8.138-2.18l-1.017-1.744v-1.308L68.045,203.197
				z"/>
		</g>
		<path fill="#333333" stroke="#666766" stroke-miterlimit="10" d="M67.028,213.078c0,0-0.145,0.436,1.017,1.744
			c1.163,1.308,5.813,2.034,8.138,2.18c2.325,0.145,10.899-3.197,10.899-3.197v-1.598c0,0-3.342-1.744-7.92-2.034
			S67.028,213.078,67.028,213.078z"/>
		<g>
			<path fill="#333333" d="M68.206,204.583c0,0,0.263-0.137,0.733-0.355c0.473-0.208,1.143-0.524,1.963-0.859
				c1.646-0.662,3.847-1.507,6.186-2.05c0.292-0.07,0.592-0.131,0.898-0.175c0.321-0.034,0.6-0.093,1.046-0.024
				c0.552,0.1,1.124,0.213,1.659,0.33c1.078,0.2,2.076,0.407,2.939,0.6c0.865,0.179,1.579,0.381,2.082,0.498
				c0.502,0.124,0.787,0.213,0.787,0.213s-0.298,0.008-0.816-0.009c-0.516-0.025-1.258-0.034-2.141-0.104
				c-0.883-0.064-1.922-0.165-3.024-0.307c-0.551-0.076-1.101-0.165-1.69-0.266c-0.333-0.037-0.996,0.102-1.527,0.21
				c-1.123,0.249-2.255,0.558-3.316,0.839c-1.065,0.281-2.059,0.543-2.911,0.768c-0.859,0.212-1.575,0.388-2.076,0.512
				C68.495,204.517,68.206,204.583,68.206,204.583z"/>
		</g>
		<g>
			<path fill="#333333" d="M74.003,208.573c0.771-0.396,1.567-0.628,2.369-0.813c0.4-0.1,0.807-0.156,1.212-0.223
				c0.407-0.053,0.815-0.102,1.227-0.122l0.15-0.007l0.057,0.027c0.676,0.313,1.343,0.654,1.959,1.14
				c-0.785,0.001-1.52-0.142-2.245-0.313l0.207,0.019c-0.4,0.101-0.804,0.172-1.209,0.241c-0.407,0.054-0.813,0.119-1.224,0.14
				C75.685,208.717,74.856,208.728,74.003,208.573z"/>
		</g>
		<g>
			<path fill="#333333" d="M78.44,200.253c0,0,0.212,0.608,0.398,1.529c0.194,0.921,0.368,2.154,0.461,3.394
				c0.087,1.24,0.095,2.486,0.036,3.425c-0.051,0.938-0.174,1.571-0.174,1.571s-0.213-0.608-0.399-1.529
				c-0.194-0.921-0.367-2.154-0.46-3.394c-0.087-1.24-0.093-2.486-0.035-3.425C78.319,200.885,78.44,200.253,78.44,200.253z"/>
		</g>
		<g>
			<path fill="#303030" d="M67.609,202.509c0.882-0.43,1.786-0.799,2.679-1.196c0.901-0.377,1.805-0.742,2.715-1.094
				c1.819-0.704,3.651-1.368,5.496-1.994l0.005-0.002c0.089-0.03,0.183-0.033,0.268-0.013c1.668,0.398,3.331,0.813,4.983,1.279
				c1.654,0.456,3.296,0.962,4.925,1.528c-1.711-0.209-3.409-0.478-5.094-0.797c-1.688-0.31-3.364-0.669-5.036-1.046l0.273-0.014
				c-1.839,0.646-3.69,1.254-5.555,1.823c-0.933,0.284-1.87,0.556-2.811,0.815C69.507,202.036,68.569,202.303,67.609,202.509z"/>
		</g>
		<g>
			<path fill="#303030" d="M69.478,201.975c0,0,0.039-0.845,0.225-2.081c0.179-1.238,0.5-2.867,0.898-4.477
				c0.405-1.608,0.887-3.198,1.312-4.374c0.417-1.178,0.781-1.942,0.781-1.942s-0.038,0.845-0.224,2.081
				c-0.178,1.238-0.5,2.867-0.9,4.477c-0.406,1.608-0.889,3.197-1.313,4.373C69.842,201.211,69.478,201.975,69.478,201.975z"/>
		</g>
		<g>
			<path fill="#303030" d="M77.491,187.335c0,0,0.051,0.809-0.003,2.003c-0.046,1.195-0.192,2.777-0.417,4.347
				c-0.232,1.569-0.541,3.127-0.839,4.286c-0.289,1.16-0.57,1.921-0.57,1.921s-0.052-0.809,0.001-2.003
				c0.045-1.196,0.192-2.777,0.418-4.347c0.232-1.569,0.543-3.127,0.84-4.286C77.211,188.095,77.491,187.335,77.491,187.335z"/>
		</g>
		<g>
			<path fill="#303030" d="M82.867,189.101c0,0,0.3,0.665,0.621,1.688c0.329,1.021,0.683,2.399,0.959,3.792
				c0.269,1.395,0.461,2.804,0.541,3.874c0.088,1.068,0.059,1.798,0.059,1.798s-0.301-0.665-0.622-1.687
				c-0.329-1.021-0.682-2.399-0.958-3.793c-0.269-1.395-0.459-2.805-0.539-3.875C82.839,189.83,82.867,189.101,82.867,189.101z"/>
		</g>
		<g>
			<path fill="#303030" d="M78.217,187.067c0,0,0.226,0.75,0.433,1.885c0.215,1.135,0.416,2.654,0.538,4.179
				c0.115,1.526,0.151,3.058,0.113,4.212c-0.03,1.154-0.139,1.929-0.139,1.929s-0.227-0.75-0.434-1.885
				c-0.215-1.135-0.416-2.654-0.537-4.18c-0.114-1.526-0.149-3.058-0.111-4.212C78.11,187.843,78.217,187.067,78.217,187.067z"/>
		</g>
		<polygon fill="none" stroke="#303030" stroke-linecap="round" stroke-linejoin="round" stroke-miterlimit="10" points="
			72.695,189.101 78.217,187.067 82.867,189.101 77.781,190.845 		"/>
	</g>
</g>
</svg>
