<?xml version="1.0" encoding="utf-8"?>
<!-- Generator: Adobe Illustrator 17.0.0, SVG Export Plug-In . SVG Version: 6.00 Build 0)  -->
<!DOCTYPE svg PUBLIC "-//W3C//DTD SVG 1.1//EN" "http://www.w3.org/Graphics/SVG/1.1/DTD/svg11.dtd">
<svg version="1.1" id="Layer_1" xmlns="http://www.w3.org/2000/svg" xmlns:xlink="http://www.w3.org/1999/xlink" x="0px" y="0px"
	 width="3072px" height="300px" viewBox="0 0 3072 300" enable-background="new 0 0 3072 300" xml:space="preserve">
<path fill="#414042" d="M52.665,0v21.042c0,6.627,4.2,12,9.381,12h278.573c5.181,0,9.381-5.373,9.381-12V0H52.665z"/>
<rect x="1" y="267" fill="#414042" width="3072" height="33"/>
<g>
	<path fill="#414042" d="M118,263c-2-14-8-22-20-16l4,4c-14,20-34-6-50,10c22-30-20-42-16-2c-10.716-3.572-21.435-11.922-35-12.245
		v27.012C17.374,291.598,57.289,285,84,285c20,0,58,8,76-2C194,265,130,253,118,263z"/>
</g>
</svg>
