<?xml version="1.0" encoding="utf-8"?>
<!-- Generator: Adobe Illustrator 17.0.0, SVG Export Plug-In . SVG Version: 6.00 Build 0)  -->
<!DOCTYPE svg PUBLIC "-//W3C//DTD SVG 1.1//EN" "http://www.w3.org/Graphics/SVG/1.1/DTD/svg11.dtd">
<svg version="1.1" id="Layer_1" xmlns="http://www.w3.org/2000/svg" xmlns:xlink="http://www.w3.org/1999/xlink" x="0px" y="0px"
	 width="910px" height="50px" viewBox="0 0 910 50" enable-background="new 0 0 910 50" xml:space="preserve">
<g>
	<path fill="#414042" d="M22.047,45.309c0,0.188-0.063,0.251-0.25,0.376c-2.067,1.253-4.511,1.692-7.518,1.692
		c-10.338,0-14.097-7.77-14.097-15.476c0-8.771,5.764-15.663,14.974-15.663c3.383,0,5.701,0.814,6.641,1.378
		c0.188,0.126,0.25,0.251,0.25,0.438v2.068c0,0.25-0.125,0.313-0.313,0.188c-2.068-1.065-4.073-1.566-6.767-1.566
		C7.637,18.744,3,24.383,3,31.776C3,40.359,7.888,44.87,14.654,44.87c2.757,0,4.887-0.438,7.08-1.691
		c0.188-0.063,0.313,0,0.313,0.188V45.309z"/>
	<path fill="#414042" d="M37.835,16.864c0.25,0,0.313,0.063,0.376,0.313c0.188,0.752,0.375,2.694,0.438,4.01
		c2.569-3.258,6.328-4.949,9.398-4.949c0.125,0,0.501,0,0.689,0.063s0.188,0.125,0.188,0.438v1.88c0,0.25-0.063,0.313-0.313,0.313
		c-4.323-0.126-8.207,2.631-9.961,5.263v22.241c0,0.251-0.063,0.313-0.25,0.313h-2.256c-0.25,0-0.25-0.125-0.25-0.313V24.821
		c0-2.568-0.188-6.202-0.376-7.644c-0.063-0.25,0-0.313,0.25-0.313H37.835z"/>
	<path fill="#414042" d="M61.394,31.274c-0.376,7.77,3.822,13.533,11.465,13.533c2.569,0,5.263-0.313,7.894-1.816
		c0.188-0.126,0.25,0,0.25,0.188v1.88c0,0.25-0.063,0.376-0.188,0.438c-2.005,1.19-4.386,1.816-8.271,1.88
		c-10.149,0.063-13.971-7.832-13.971-15.351c0-9.21,5.012-15.788,12.969-15.788c8.271,0,11.403,7.017,11.403,11.591
		c0,1.942-0.125,2.944-0.376,3.069c-1.127,0.313-3.822,0.376-6.704,0.376H61.394z M75.616,29.02c3.822,0,4.511-0.063,4.573-0.313
		c0.063-0.251,0.063-0.814,0.063-1.315c0-2.443-1.754-8.771-8.897-8.771c-6.015,0-9.147,4.762-9.836,10.4H75.616z"/>
	<path fill="#414042" d="M105.814,47.377c-6.39,0-11.34-3.07-11.34-9.398c0-7.393,6.328-10.4,18.733-9.836v-1.629
		c0-2.444-0.939-7.707-7.456-7.707c-3.007,0-5.764,0.877-8.333,2.507c-0.188,0.063-0.376,0-0.376-0.188v-2.067
		c0-0.188,0.063-0.251,0.25-0.376c2.193-1.378,5.451-2.443,8.771-2.443c7.017,0,9.961,4.824,9.961,10.901v15.476
		c0,0.688,0,1.378,0.063,2.067c0,0.063,0,0.125-0.125,0.188C112.456,46.813,108.822,47.377,105.814,47.377z M113.271,30.397
		c-12.155-0.563-16.039,2.381-16.039,7.581c0,3.446,2.381,6.954,9.147,6.954c2.443,0,4.762-0.438,6.892-1.315V30.397z"/>
	<path fill="#414042" d="M143.282,45.998c0,0.188,0,0.313-0.25,0.438c-1.253,0.689-2.945,0.94-4.26,0.94
		c-3.947,0-6.391-1.88-6.391-7.645V19.245h-4.448c-0.313,0-0.313-0.188-0.313-0.438V17.24c0-0.25,0.063-0.376,0.313-0.376h4.448
		c0.063-2.443,0.313-7.393,0.564-8.646c0.063-0.188,0.125-0.251,0.25-0.313l2.13-0.501c0.188-0.063,0.313,0,0.313,0.125
		c-0.25,2.318-0.438,6.266-0.438,9.335h7.268c0.25,0,0.313,0.126,0.313,0.376v1.629c0,0.251-0.125,0.376-0.313,0.376H135.2v20.738
		c0,3.008,1.128,4.949,4.135,4.949c1.127,0,2.255-0.188,3.634-0.814c0.188-0.063,0.313,0,0.313,0.251V45.998z"/>
	<path fill="#414042" d="M156.314,31.274c-0.376,7.77,3.822,13.533,11.465,13.533c2.569,0,5.263-0.313,7.894-1.816
		c0.188-0.126,0.25,0,0.25,0.188v1.88c0,0.25-0.063,0.376-0.188,0.438c-2.005,1.19-4.386,1.816-8.271,1.88
		c-10.149,0.063-13.971-7.832-13.971-15.351c0-9.21,5.012-15.788,12.969-15.788c8.271,0,11.403,7.017,11.403,11.591
		c0,1.942-0.125,2.944-0.376,3.069c-1.127,0.313-3.822,0.376-6.704,0.376H156.314z M170.536,29.02c3.822,0,4.511-0.063,4.573-0.313
		c0.063-0.251,0.063-0.814,0.063-1.315c0-2.443-1.754-8.771-8.897-8.771c-6.015,0-9.147,4.762-9.836,10.4H170.536z"/>
	<path fill="#414042" d="M224.417,22.879c0.063,0.126,0.063,0.251-0.063,0.376l-1.503,0.94c-0.25,0.063-0.376,0-0.438-0.126
		l-4.762-7.894l-6.203,6.391c-0.125,0.063-0.25,0.125-0.376,0l-1.065-1.19c-0.188-0.126-0.188-0.251-0.063-0.376l6.454-6.077
		l-7.143-3.259c-0.125-0.063-0.188-0.188-0.125-0.375l0.877-1.692c0.063-0.125,0.125-0.188,0.313-0.125l6.829,3.885l0.94-8.458
		c0-0.126,0.063-0.251,0.25-0.251l2.005,0.251c0.125,0.063,0.188,0.063,0.188,0.25l-1.566,8.458l7.769-1.754
		c0.125-0.063,0.25-0.063,0.313,0.125l0.313,1.755c0,0.125,0,0.313-0.188,0.313l-7.957,1.19L224.417,22.879z"/>
	<path fill="#414042" d="M259.691,1.828c0-0.251,0.125-0.251,0.313-0.251h2.193c0.188,0,0.313,0.126,0.313,0.251v39.847
		c0,2.945,1.065,3.321,2.443,3.321c0.376,0,1.002-0.063,1.629-0.188c0.188-0.063,0.188,0.063,0.188,0.251v1.566
		c0,0.188,0,0.25-0.25,0.313c-0.438,0.251-1.441,0.439-2.443,0.439c-2.005,0-4.386-0.689-4.386-5.702V1.828z"/>
	<path fill="#414042" d="M280.742,31.274c-0.376,7.77,3.822,13.533,11.465,13.533c2.569,0,5.263-0.313,7.894-1.816
		c0.188-0.126,0.25,0,0.25,0.188v1.88c0,0.25-0.063,0.376-0.188,0.438c-2.005,1.19-4.386,1.816-8.271,1.88
		c-10.149,0.063-13.971-7.832-13.971-15.351c0-9.21,5.012-15.788,12.969-15.788c8.271,0,11.403,7.017,11.403,11.591
		c0,1.942-0.125,2.944-0.376,3.069c-1.127,0.313-3.822,0.376-6.704,0.376H280.742z M294.964,29.02c3.822,0,4.511-0.063,4.573-0.313
		c0.063-0.251,0.063-0.814,0.063-1.315c0-2.443-1.754-8.771-8.897-8.771c-6.015,0-9.147,4.762-9.836,10.4H294.964z"/>
	<path fill="#414042" d="M325.162,47.377c-6.39,0-11.34-3.07-11.34-9.398c0-7.393,6.328-10.4,18.733-9.836v-1.629
		c0-2.444-0.939-7.707-7.456-7.707c-3.007,0-5.764,0.877-8.333,2.507c-0.188,0.063-0.376,0-0.376-0.188v-2.067
		c0-0.188,0.063-0.251,0.25-0.376c2.193-1.378,5.451-2.443,8.771-2.443c7.017,0,9.961,4.824,9.961,10.901v15.476
		c0,0.688,0,1.378,0.063,2.067c0,0.063,0,0.125-0.125,0.188C331.804,46.813,328.169,47.377,325.162,47.377z M332.618,30.397
		c-12.155-0.563-16.039,2.381-16.039,7.581c0,3.446,2.381,6.954,9.147,6.954c2.443,0,4.762-0.438,6.892-1.315V30.397z"/>
	<path fill="#414042" d="M353.545,16.864c0.25,0,0.313,0.063,0.376,0.313c0.188,0.752,0.375,2.694,0.438,4.01
		c2.569-3.258,6.328-4.949,9.398-4.949c0.125,0,0.501,0,0.689,0.063s0.188,0.125,0.188,0.438v1.88c0,0.25-0.063,0.313-0.313,0.313
		c-4.323-0.126-8.208,2.631-9.961,5.263v22.241c0,0.251-0.063,0.313-0.251,0.313h-2.255c-0.25,0-0.25-0.125-0.25-0.313V24.821
		c0-2.568-0.188-6.202-0.376-7.644c-0.063-0.25,0-0.313,0.25-0.313H353.545z"/>
	<path fill="#414042" d="M376.977,23.819c0-2.193-0.188-5.827-0.251-6.642c0-0.25,0.063-0.313,0.376-0.313h1.942
		c0.188,0,0.25,0.063,0.376,0.313c0.125,0.564,0.25,2.443,0.313,3.696c3.07-3.007,6.704-4.636,10.275-4.636
		c3.634,0,9.773,1.816,9.773,11.778v18.357c0,0.313-0.125,0.376-0.375,0.376h-2.068c-0.313,0-0.376-0.125-0.376-0.376V28.017
		c0-5.388-2.38-9.147-7.644-9.147c-3.759,0-7.142,2.131-9.523,4.762v22.806c0,0.251-0.125,0.313-0.376,0.313h-2.193
		c-0.188,0-0.25-0.125-0.25-0.376V23.819z"/>
	<path fill="#414042" d="M448.401,22.879c0.063,0.126,0.063,0.251-0.063,0.376l-1.503,0.94c-0.25,0.063-0.376,0-0.438-0.126
		l-4.762-7.894l-6.203,6.391c-0.125,0.063-0.25,0.125-0.376,0l-1.065-1.19c-0.188-0.126-0.188-0.251-0.063-0.376l6.454-6.077
		l-7.143-3.259c-0.125-0.063-0.188-0.188-0.125-0.375l0.877-1.692c0.063-0.125,0.125-0.188,0.313-0.125l6.829,3.885l0.94-8.458
		c0-0.126,0.063-0.251,0.25-0.251l2.005,0.251c0.125,0.063,0.188,0.063,0.188,0.25l-1.566,8.458l7.769-1.754
		c0.125-0.063,0.25-0.063,0.313,0.125l0.313,1.755c0,0.125,0,0.313-0.188,0.313l-7.957,1.19L448.401,22.879z"/>
	<path fill="#414042" d="M490.566,18.682c-5.326,0-6.642,2.944-6.642,5.2c0,2.882,1.378,4.261,7.143,6.578
		c5.138,2.068,8.458,4.01,8.458,8.584c0,6.015-5.2,8.333-9.837,8.333c-3.759,0-6.641-1.065-8.646-2.381
		c-0.188-0.188-0.251-0.251-0.251-0.502v-2.317c0-0.251,0.126-0.313,0.251-0.251c2.568,1.88,5.639,3.007,8.834,3.007
		c5.074,0,6.892-2.819,6.892-5.45c0-3.008-2.005-4.511-7.644-6.829c-5.013-2.005-7.895-4.135-7.895-8.584
		c0-4.636,3.885-7.831,9.523-7.831c3.634,0,5.89,0.939,7.33,1.754c0.188,0.126,0.188,0.313,0.188,0.502v2.067
		c0,0.25-0.126,0.313-0.376,0.188C496.017,19.621,493.573,18.682,490.566,18.682z"/>
	<path fill="#414042" d="M513.559,1.891c0-0.188,0-0.313,0.251-0.313h2.256c0.188,0,0.313,0.063,0.313,0.251v18.545
		c2.443-2.192,5.765-4.135,10.15-4.135c3.947,0,9.836,2.005,9.836,11.841v18.295c0,0.313-0.063,0.376-0.313,0.376h-2.192
		c-0.251,0-0.313-0.063-0.313-0.313v-18.42c0-5.764-2.631-9.147-7.519-9.147c-4.386,0-7.33,2.005-9.648,4.198v23.369
		c0,0.251-0.125,0.313-0.376,0.313h-2.13c-0.251,0-0.313-0.125-0.313-0.313V1.891z"/>
	<path fill="#414042" d="M561.99,47.377c-6.391,0-11.34-3.07-11.34-9.398c0-7.393,6.328-10.4,18.733-9.836v-1.629
		c0-2.444-0.94-7.707-7.456-7.707c-3.007,0-5.764,0.877-8.333,2.507c-0.188,0.063-0.376,0-0.376-0.188v-2.067
		c0-0.188,0.063-0.251,0.251-0.376c2.192-1.378,5.451-2.443,8.771-2.443c7.017,0,9.962,4.824,9.962,10.901v15.476
		c0,0.688,0,1.378,0.063,2.067c0,0.063,0,0.125-0.125,0.188C568.632,46.813,564.998,47.377,561.99,47.377z M569.446,30.397
		c-12.155-0.563-16.039,2.381-16.039,7.581c0,3.446,2.381,6.954,9.147,6.954c2.443,0,4.762-0.438,6.892-1.315V30.397z"/>
	<path fill="#414042" d="M590.372,16.864c0.251,0,0.313,0.063,0.376,0.313c0.188,0.752,0.376,2.694,0.438,4.01
		c2.569-3.258,6.328-4.949,9.398-4.949c0.125,0,0.501,0,0.689,0.063c0.188,0.063,0.188,0.125,0.188,0.438v1.88
		c0,0.25-0.063,0.313-0.313,0.313c-4.323-0.126-8.207,2.631-9.962,5.263v22.241c0,0.251-0.063,0.313-0.25,0.313h-2.256
		c-0.251,0-0.251-0.125-0.251-0.313V24.821c0-2.568-0.188-6.202-0.375-7.644c-0.063-0.25,0-0.313,0.25-0.313H590.372z"/>
	<path fill="#414042" d="M613.931,31.274c-0.376,7.77,3.821,13.533,11.465,13.533c2.569,0,5.264-0.313,7.895-1.816
		c0.188-0.126,0.251,0,0.251,0.188v1.88c0,0.25-0.063,0.376-0.188,0.438c-2.005,1.19-4.386,1.816-8.27,1.88
		c-10.15,0.063-13.972-7.832-13.972-15.351c0-9.21,5.012-15.788,12.969-15.788c8.271,0,11.403,7.017,11.403,11.591
		c0,1.942-0.126,2.944-0.376,3.069c-1.128,0.313-3.822,0.376-6.704,0.376H613.931z M628.152,29.02c3.822,0,4.512-0.063,4.574-0.313
		s0.063-0.814,0.063-1.315c0-2.443-1.754-8.771-8.896-8.771c-6.015,0-9.147,4.762-9.837,10.4H628.152z"/>
	<path fill="#414042" d="M682.034,22.879c0.063,0.126,0.063,0.251-0.063,0.376l-1.504,0.94c-0.251,0.063-0.376,0-0.438-0.126
		l-4.762-7.894l-6.203,6.391c-0.125,0.063-0.25,0.125-0.375,0l-1.065-1.19c-0.188-0.126-0.188-0.251-0.063-0.376l6.453-6.077
		l-7.143-3.259c-0.125-0.063-0.188-0.188-0.125-0.375l0.877-1.692c0.063-0.125,0.125-0.188,0.313-0.125l6.829,3.885l0.939-8.458
		c0-0.126,0.063-0.251,0.251-0.251l2.005,0.251c0.125,0.063,0.188,0.063,0.188,0.25l-1.566,8.458l7.77-1.754
		c0.125-0.063,0.25-0.063,0.313,0.125l0.313,1.755c0,0.125,0,0.313-0.188,0.313l-7.957,1.19L682.034,22.879z"/>
	<path fill="#414042" d="M718.311,31.274c-0.376,7.77,3.821,13.533,11.465,13.533c2.569,0,5.264-0.313,7.895-1.816
		c0.188-0.126,0.251,0,0.251,0.188v1.88c0,0.25-0.063,0.376-0.188,0.438c-2.005,1.19-4.386,1.816-8.27,1.88
		c-10.15,0.063-13.972-7.832-13.972-15.351c0-9.21,5.012-15.788,12.969-15.788c8.271,0,11.403,7.017,11.403,11.591
		c0,1.942-0.126,2.944-0.376,3.069c-1.128,0.313-3.822,0.376-6.704,0.376H718.311z M732.532,29.02c3.822,0,4.512-0.063,4.574-0.313
		s0.063-0.814,0.063-1.315c0-2.443-1.755-8.771-8.896-8.771c-6.015,0-9.147,4.762-9.837,10.4H732.532z"/>
	<path fill="#414042" d="M762.73,46.75c-0.25,0-0.376-0.125-0.438-0.251c-0.563-1.566-10.274-27.128-11.089-29.259
		c-0.063-0.25-0.063-0.376,0.188-0.376h2.443c0.188,0,0.251,0.063,0.313,0.251c6.328,17.167,9.335,24.936,10.149,27.379h0.063
		c0.878-2.443,3.76-9.836,10.275-27.316c0.125-0.313,0.188-0.313,0.438-0.313h2.256c0.188,0,0.25,0.126,0.188,0.376
		c-1.19,3.07-11.152,28.633-11.402,29.259c-0.063,0.188-0.125,0.251-0.376,0.251H762.73z"/>
	<path fill="#414042" d="M815.798,31.839c0,9.397-5.451,15.538-13.596,15.538c-9.962,0-13.847-8.333-13.847-15.601
		c0-8.96,5.451-15.538,13.783-15.538C810.284,16.238,815.798,22.44,815.798,31.839z M791.175,31.713
		c0,7.018,3.696,13.283,11.09,13.283c5.074,0,10.714-3.446,10.714-13.095c0-6.642-3.07-13.282-11.027-13.282
		C795.436,18.619,791.175,23.882,791.175,31.713z"/>
	<path fill="#414042" d="M830.271,1.828c0-0.251,0.126-0.251,0.313-0.251h2.193c0.188,0,0.313,0.126,0.313,0.251v39.847
		c0,2.945,1.065,3.321,2.443,3.321c0.376,0,1.003-0.063,1.63-0.188c0.188-0.063,0.188,0.063,0.188,0.251v1.566
		c0,0.188,0,0.25-0.251,0.313c-0.438,0.251-1.44,0.439-2.443,0.439c-2.005,0-4.386-0.689-4.386-5.702V1.828z"/>
	<path fill="#414042" d="M858.776,46.75c-0.25,0-0.376-0.125-0.438-0.251c-0.563-1.566-10.274-27.128-11.089-29.259
		c-0.063-0.25-0.063-0.376,0.188-0.376h2.443c0.188,0,0.251,0.063,0.313,0.251c6.328,17.167,9.335,24.936,10.149,27.379h0.063
		c0.878-2.443,3.76-9.836,10.275-27.316c0.125-0.313,0.188-0.313,0.438-0.313h2.256c0.188,0,0.25,0.126,0.188,0.376
		c-1.19,3.07-11.152,28.633-11.402,29.259c-0.063,0.188-0.125,0.251-0.376,0.251H858.776z"/>
	<path fill="#414042" d="M887.097,31.274c-0.376,7.77,3.821,13.533,11.465,13.533c2.569,0,5.264-0.313,7.895-1.816
		c0.188-0.126,0.251,0,0.251,0.188v1.88c0,0.25-0.063,0.376-0.188,0.438c-2.005,1.19-4.386,1.816-8.27,1.88
		c-10.15,0.063-13.972-7.832-13.972-15.351c0-9.21,5.012-15.788,12.969-15.788c8.271,0,11.403,7.017,11.403,11.591
		c0,1.942-0.126,2.944-0.376,3.069c-1.128,0.313-3.822,0.376-6.704,0.376H887.097z M901.318,29.02c3.822,0,4.512-0.063,4.574-0.313
		s0.063-0.814,0.063-1.315c0-2.443-1.754-8.771-8.896-8.771c-6.015,0-9.147,4.762-9.837,10.4H901.318z"/>
</g>
</svg>
