<?xml version="1.0" encoding="utf-8"?>
<!-- Generator: Adobe Illustrator 17.0.0, SVG Export Plug-In . SVG Version: 6.00 Build 0)  -->
<!DOCTYPE svg PUBLIC "-//W3C//DTD SVG 1.1//EN" "http://www.w3.org/Graphics/SVG/1.1/DTD/svg11.dtd">
<svg version="1.1" id="Layer_1" xmlns="http://www.w3.org/2000/svg" xmlns:xlink="http://www.w3.org/1999/xlink" x="0px" y="0px"
	 width="1498px" height="180px" viewBox="0 0 1498 180" enable-background="new 0 0 1498 180" xml:space="preserve">
<path fill="#D1D3D4" d="M22.496,175.038c0,1.325-0.265,1.855-1.59,1.855H1.56c-1.325,0-1.855-0.53-1.855-1.855V4.634
	c0-1.325,0.53-1.855,1.855-1.855h19.346c1.061,0,1.59,0.53,1.59,1.59V175.038z"/>
<path fill="#D1D3D4" d="M174.614,2.779h25.972c1.59,0,1.855,0.265,2.65,1.59c23.321,40.282,78.179,134.362,82.685,145.228h0.53
	c-0.53-6.89-0.795-22.261-0.795-43.197V4.634c0-1.325,0.53-1.855,1.855-1.855h18.021c1.325,0,1.59,0.795,1.59,1.855v170.14
	c0,1.59-0.265,2.12-2.12,2.12h-24.912c-1.59,0-2.12-0.53-2.915-1.59c-12.456-25.441-75.264-131.447-83.479-149.999h-0.265
	c1.06,10.601,1.06,26.236,1.325,49.558v100.175c0,1.325-0.53,1.855-1.59,1.855h-18.021c-1.325,0-2.12-0.265-2.12-1.855V4.369
	C173.024,3.309,173.554,2.779,174.614,2.779z"/>
<path fill="#D1D3D4" d="M448.643,165.498c-1.061-1.061-1.325-1.855-1.325-3.445v-18.021c0-1.06,0.795-1.854,1.855-1.06
	c14.576,11.131,33.657,17.226,51.148,17.226c24.646,0,34.187-12.19,34.187-25.706c0-14.046-6.625-21.466-38.957-36.042
	c-35.777-15.636-46.112-29.417-46.112-51.943c0-26.501,22.261-46.113,56.978-46.113c18.286,0,32.597,4.505,41.342,9.806
	c1.06,0.795,1.325,1.325,1.325,2.915v16.961c0,1.061-0.795,1.855-2.12,1.061c-10.866-6.625-25.441-12.191-41.077-12.191
	c-29.152,0-33.657,17.226-33.657,25.707c0,11.661,5.565,20.936,34.187,33.392c42.137,18.021,51.148,32.597,51.148,54.063
	c0,27.296-20.671,47.438-58.303,47.438C480.709,179.544,461.628,174.773,448.643,165.498z"/>
<path fill="#D1D3D4" d="M698.288,4.634c0-1.06,0.265-1.855,1.59-1.855c8.746-0.265,26.236-0.53,44.257-0.53
	c48.498,0,67.314,25.441,67.314,56.713c0,41.873-33.392,59.628-71.554,59.628c-9.805,0-16.696-0.265-18.816-0.265v56.713
	c0,1.325-0.265,1.855-1.59,1.855h-19.346c-1.06,0-1.855-0.53-1.855-1.59V4.634z M721.079,99.774c2.65,0.265,7.155,0.53,19.346,0.53
	c23.321,0,48.498-8.746,48.498-41.077c0-25.971-17.491-38.692-44.788-38.692c-11.661,0-20.671,0.265-23.056,0.53V99.774z"/>
<path fill="#D1D3D4" d="M975.493,175.038c0,1.325-0.265,1.855-1.59,1.855h-19.346c-1.325,0-1.855-0.53-1.855-1.855V4.634
	c0-1.325,0.53-1.855,1.855-1.855h19.346c1.061,0,1.59,0.53,1.59,1.59V175.038z"/>
<path fill="#D1D3D4" d="M1127.875,176.894c-1.325,0-1.855-0.265-1.855-1.59V4.899c0-1.325,0.266-2.12,1.59-2.12
	c11.661-0.265,25.177-0.53,46.113-0.53c38.427,0,63.868,15.371,63.868,48.498c0,25.707-16.166,40.547-39.222,47.172
	c3.975,5.831,53.268,67.049,60.158,76.854c0.795,1.061,0.795,2.12-0.53,2.12h-23.586c-1.591,0-2.386-0.265-2.915-1.325
	c-8.216-10.07-37.103-48.763-51.148-67.579c-2.12-3.18-3.71-4.505-8.215-4.505h-23.587v71.819c0,1.06-0.53,1.59-1.59,1.59H1127.875z
	 M1172.928,85.198c29.682,0,41.872-14.576,41.872-33.126c0-20.406-14.841-31.537-42.402-31.537c-15.371,0-22.526,0.265-23.852,0.265
	v64.398H1172.928z"/>
<path fill="#D1D3D4" d="M1494.128,175.304c-0.266,1.325-0.795,1.59-2.12,1.59h-100.706c-1.59,0-2.12-0.53-2.12-2.12V4.634
	c0-1.325,0.53-1.855,1.855-1.855h96.995c1.325,0,1.59,0.265,2.12,1.59l1.855,15.105c0.265,1.061,0,1.855-1.325,1.855h-78.71v57.508
	h69.965c1.06,0,1.324,0.53,1.324,1.59v15.371c0,1.325-0.529,1.59-1.59,1.59h-69.699v60.954h83.745c1.325,0,1.59,0.53,1.325,1.59
	L1494.128,175.304z"/>
</svg>
