<?xml version="1.0" encoding="utf-8"?>
<!-- Generator: Adobe Illustrator 17.0.0, SVG Export Plug-In . SVG Version: 6.00 Build 0)  -->
<!DOCTYPE svg PUBLIC "-//W3C//DTD SVG 1.1//EN" "http://www.w3.org/Graphics/SVG/1.1/DTD/svg11.dtd">
<svg version="1.1" id="Layer_1" xmlns="http://www.w3.org/2000/svg" xmlns:xlink="http://www.w3.org/1999/xlink" x="0px" y="0px"
	 width="2150px" height="130px" viewBox="0 0 2150 130" enable-background="new 0 0 2150 130" xml:space="preserve">
<g>
	<path fill="#CCCCCC" d="M2107,75.512c-38-4-72-8-112-12c-18-2-36-8-56-12c-18-6-20-10-40-8c-8,0-16,2-26,2c-30-2-50-28-80-28
		c-24,0-44,20-70,22c-54,4-104,10-158,16c-96,10-182,22-280,16c-46-2-92-12-140-6s-96,12-144,10c-90-2-182,0-272-8c-44-4-74-4-118,2
		c-44,8-88-8-132-12c-76-8-160-6-238-4c-42,2-78,18-120,14c-42-2-82-2-120,20l-1,0.25v7.219c21.057,10.702,69.917,4.531,91,4.531
		c76,4,150,16,228,16c128-2,256-12,384-16c318-8,634,42,954,28c136-8,270-22,408-20c20,0,62,6,80-10
		C2161,79.512,2125,77.512,2107,75.512z"/>
</g>
<g opacity="0.1">
	<path fill="#CCCCCC" d="M2107,61.512c-38-4-72-8-112-12c-18-2-36-8-56-12c-18-6-20-10-40-8c-8,0-16,2-26,2c-30-2-50-28-80-28
		c-24,0-44,20-70,22c-54,4-104,10-158,16c-96,10-182,22-280,16c-46-2-92-12-140-6s-96,12-144,10c-90-2-182,0-272-8c-44-4-74-4-118,2
		c-44,8-88-8-132-12c-76-8-160-6-238-4c-42,2-78,18-120,14c-42-2-82-2-120,20l-1,0.25v7.219c21.057,10.702,69.917,4.531,91,4.531
		c76,4,150,16,228,16c128-2,256-12,384-16c318-8,634,42,954,28c136-8,270-22,408-20c20,0,62,6,80-10
		C2161,65.512,2125,63.512,2107,61.512z"/>
</g>
</svg>
