<?xml version="1.0" encoding="utf-8"?>
<!-- Generator: Adobe Illustrator 17.0.0, SVG Export Plug-In . SVG Version: 6.00 Build 0)  -->
<!DOCTYPE svg PUBLIC "-//W3C//DTD SVG 1.1//EN" "http://www.w3.org/Graphics/SVG/1.1/DTD/svg11.dtd">
<svg version="1.1" id="Layer_1" xmlns="http://www.w3.org/2000/svg" xmlns:xlink="http://www.w3.org/1999/xlink" x="0px" y="0px"
	 width="150px" height="180px" viewBox="0 0 150 180" enable-background="new 0 0 150 180" xml:space="preserve">
<path fill="#D1D3D4" d="M9.614,2.779h25.972c1.59,0,1.855,0.265,2.65,1.59c23.321,40.282,78.179,134.362,82.685,145.228h0.53
	c-0.53-6.89-0.795-22.261-0.795-43.197V4.634c0-1.325,0.53-1.855,1.855-1.855h18.021c1.325,0,1.59,0.795,1.59,1.855v170.14
	c0,1.59-0.265,2.12-2.12,2.12h-24.912c-1.59,0-2.12-0.53-2.915-1.59C99.719,149.862,36.91,43.856,28.695,25.305H28.43
	c1.06,10.601,1.06,26.236,1.325,49.558v100.175c0,1.325-0.53,1.855-1.59,1.855H10.144c-1.325,0-2.12-0.265-2.12-1.855V4.369
	C8.024,3.309,8.554,2.779,9.614,2.779z"/>
</svg>
