<?xml version="1.0" encoding="utf-8"?>
<!-- Generator: Adobe Illustrator 17.0.0, SVG Export Plug-In . SVG Version: 6.00 Build 0)  -->
<!DOCTYPE svg PUBLIC "-//W3C//DTD SVG 1.1//EN" "http://www.w3.org/Graphics/SVG/1.1/DTD/svg11.dtd">
<svg version="1.1" id="Layer_1" xmlns="http://www.w3.org/2000/svg" xmlns:xlink="http://www.w3.org/1999/xlink" x="0px" y="0px"
	 width="150px" height="180px" viewBox="0 0 150 180" enable-background="new 0 0 150 180" xml:space="preserve">
<path fill="#D1D3D4" d="M18.288,5.634c0-1.06,0.265-1.855,1.59-1.855c8.746-0.265,26.236-0.53,44.257-0.53
	c48.498,0,67.314,25.441,67.314,56.713c0,41.873-33.392,59.628-71.554,59.628c-9.805,0-16.696-0.265-18.816-0.265v56.713
	c0,1.325-0.265,1.855-1.59,1.855H20.143c-1.06,0-1.855-0.53-1.855-1.59V5.634z M41.079,100.774c2.65,0.265,7.155,0.53,19.346,0.53
	c23.321,0,48.498-8.746,48.498-41.077c0-25.971-17.491-38.692-44.788-38.692c-11.661,0-20.671,0.265-23.056,0.53V100.774z"/>
</svg>
