<?xml version="1.0" encoding="utf-8"?>
<!-- Generator: Adobe Illustrator 17.0.0, SVG Export Plug-In . SVG Version: 6.00 Build 0)  -->
<!DOCTYPE svg PUBLIC "-//W3C//DTD SVG 1.1//EN" "http://www.w3.org/Graphics/SVG/1.1/DTD/svg11.dtd">
<svg version="1.1" id="Layer_1" xmlns="http://www.w3.org/2000/svg" xmlns:xlink="http://www.w3.org/1999/xlink" x="0px" y="0px"
	 width="150px" height="180px" viewBox="0 0 150 180" enable-background="new 0 0 150 180" xml:space="preserve">
<path fill="#D1D3D4" d="M9.875,177.894c-1.325,0-1.855-0.265-1.855-1.59V5.899c0-1.325,0.266-2.12,1.59-2.12
	c11.661-0.265,25.177-0.53,46.113-0.53c38.427,0,63.868,15.371,63.868,48.498c0,25.707-16.166,40.547-39.222,47.172
	c3.975,5.831,53.268,67.049,60.158,76.854c0.795,1.061,0.795,2.12-0.53,2.12h-23.586c-1.591,0-2.386-0.265-2.915-1.325
	c-8.216-10.07-37.103-48.763-51.148-67.579c-2.12-3.18-3.71-4.505-8.215-4.505H30.546v71.819c0,1.06-0.53,1.59-1.59,1.59H9.875z
	 M54.928,86.198c29.682,0,41.872-14.576,41.872-33.126c0-20.406-14.841-31.537-42.402-31.537c-15.371,0-22.526,0.265-23.852,0.265
	v64.398H54.928z"/>
</svg>
