<?xml version="1.0" encoding="utf-8"?>
<!-- Generator: Adobe Illustrator 17.0.0, SVG Export Plug-In . SVG Version: 6.00 Build 0)  -->
<!DOCTYPE svg PUBLIC "-//W3C//DTD SVG 1.1//EN" "http://www.w3.org/Graphics/SVG/1.1/DTD/svg11.dtd">
<svg version="1.1" id="Layer_1" xmlns="http://www.w3.org/2000/svg" xmlns:xlink="http://www.w3.org/1999/xlink" x="0px" y="0px"
	 width="150px" height="180px" viewBox="0 0 150 180" enable-background="new 0 0 150 180" xml:space="preserve">
<path fill="#D1D3D4" d="M21.643,165.498c-1.061-1.061-1.325-1.855-1.325-3.445v-18.021c0-1.06,0.795-1.854,1.855-1.06
	c14.576,11.131,33.657,17.226,51.148,17.226c24.646,0,34.187-12.19,34.187-25.706c0-14.046-6.625-21.466-38.957-36.042
	C32.773,82.813,22.438,69.033,22.438,46.506c0-26.501,22.261-46.113,56.978-46.113c18.286,0,32.597,4.505,41.342,9.806
	c1.06,0.795,1.325,1.325,1.325,2.915v16.961c0,1.061-0.795,1.855-2.12,1.061c-10.866-6.625-25.441-12.191-41.077-12.191
	c-29.152,0-33.657,17.226-33.657,25.707c0,11.661,5.565,20.936,34.187,33.392c42.137,18.021,51.148,32.597,51.148,54.063
	c0,27.296-20.671,47.438-58.303,47.438C53.709,179.544,34.628,174.773,21.643,165.498z"/>
</svg>
