<?xml version="1.0" encoding="utf-8"?>
<!-- Generator: Adobe Illustrator 17.0.0, SVG Export Plug-In . SVG Version: 6.00 Build 0)  -->
<!DOCTYPE svg PUBLIC "-//W3C//DTD SVG 1.1//EN" "http://www.w3.org/Graphics/SVG/1.1/DTD/svg11.dtd">
<svg version="1.1" id="Layer_1" xmlns="http://www.w3.org/2000/svg" xmlns:xlink="http://www.w3.org/1999/xlink" x="0px" y="0px"
	 width="1024px" height="53.797px" viewBox="0 0 1024 53.797" enable-background="new 0 0 1024 53.797" xml:space="preserve">
<linearGradient id="SVGID_1_" gradientUnits="userSpaceOnUse" x1="512.5" y1="21.9848" x2="512.5" y2="39.2645">
	<stop  offset="0" style="stop-color:#B9BDDF"/>
	<stop  offset="1" style="stop-color:#8898C4"/>
</linearGradient>
<path fill="url(#SVGID_1_)" d="M999.068,12.004c-27.641-1.261-53.784-7.94-82.103-5.274c-21.806,2.053-42.771,5.44-65.541,4.274
	c-20.132-1.031-41.207-8.312-61.198-5.048c-21.978,3.588-43.601,7.7-66.161,4.322C703.104,7.139,682.899,8.014,661.479,6
	c-13.234-1.244-26.182-5.837-39.982-5.996c-11.229-0.13-19.24,3.154-29.839,5.952c-26.735,7.057-46.441-0.334-72.552-2.948
	c-23.441-2.347-42.267,4.545-64.312,6.997c-21.268,2.365-40.674,1.197-62.148,1c-21.431-0.197-43.32,0.058-64.319,0.996
	c-27.42,1.226-54.157-5.203-80.315-1.774c-41.132,5.392-91.585,9.15-132.547-1.448c-13.23-3.423-23.296-7.595-36.949-4.803
	C71.049,5.504,63.311,6.69,55.201,7.985c-9.054,1.446-16.534,4.018-26.733,4.02c-6.775,0.001-20.861-1.884-26.72,2.996
	C1.497,14.98,1.25,14.971,1,14.953v38.844c48.385,0,962.407,0,1023,0V14.012C1017.161,13.157,1005.366,16.058,999.068,12.004z"/>
</svg>
